# xmcd CD database file
#
# Track frame offsets:
#	150
#	17255
#	37785
#	61495
#	83260
#	102332
#	125187
#	140625
#	160962
#	182490
#
# Disc length: 2708 seconds
#
# Revision: 0
# Processed by: cddbd v1.5PL3 Copyright (c) Steve Scherf et al.
# Submitted via: CDex 1.51
#
DISCID=760a920a
DTITLE=辻仁成 - 遠くの空は晴れている
DYEAR=1900
DGENRE=Japanese Pop
TTITLE0=How to Love
TTITLE1=ガラスの天井
TTITLE2=Lova and Chain
TTITLE3=サボテンの心
TTITLE4=僕たちの結婚
TTITLE5=ニュートンの林檎
TTITLE6=愛はいつも思いがけない
TTITLE7=冬の虹
TTITLE8=君が出ていった、ドアを見つめている
TTITLE9=遠くの空は晴れている
EXTD=
EXTT0=
EXTT1=
EXTT2=
EXTT3=
EXTT4=
EXTT5=
EXTT6=
EXTT7=
EXTT8=
EXTT9=
PLAYORDER=
